<?xml version="1.0" encoding="UTF-8"?> <svg xmlns="http://www.w3.org/2000/svg" width="430" height="430" viewBox="0 0 430 430" fill="none"><path d="M215 0C333.741 0 430 96.2588 430 215C430 333.741 333.741 430 215 430C96.2588 430 0 333.741 0 215C0 96.2588 96.2588 0 215 0ZM214.368 108.062C203.432 108.062 197.264 95.0164 183.058 100.231C177.619 102.227 171.16 104.975 170.291 105.662C169.782 106.066 167.451 108.038 165.112 110.046C161.612 113.051 160.289 113.699 157.662 113.699C154.631 113.699 152.534 112.089 149.254 112.089C128.216 112.089 118.624 132.424 117.649 150.105L117.264 157.115L113.517 160.67C97.3946 175.966 105.95 202.014 124.267 210.303C127.834 211.917 133.813 212.673 143.605 212.752C154.241 212.829 150.693 247.117 150 252.222C147.776 268.584 135.658 283.046 125.483 295.46C118.874 303.513 127.221 311.343 133.383 315.496C149.446 326.323 158.536 331.136 162.93 331.143C170.923 331.153 174.873 328.118 179.924 318.076C182.599 312.76 184.495 307.191 187.173 301.873C193.446 289.42 201.029 281.032 213.493 272.767C223.417 266.186 235.378 260.791 247.301 259.767L253.558 259.229C257.501 263.586 261.418 268.599 266.717 271.363C282.906 279.814 308.047 266.309 309.706 247.994C310.119 243.442 310.371 242.993 315.858 237.062C326.797 225.241 330.709 205.965 316.24 195.661C316.971 183.29 312.722 162.168 298.684 159.923C295.821 159.465 295.361 159.039 293.796 155.401C292.846 153.192 291.717 149.205 291.288 146.539C289.68 136.554 274.299 121.753 263.615 121.753H256.79L255.437 119.136C252.102 112.687 246.118 106.389 241.044 103.985C238.703 102.877 235.999 102.454 231.151 102.441C225.53 102.426 223.819 102.758 220.279 104.541C217.969 105.705 215.957 106.973 215.81 107.359C215.661 107.745 215.013 108.061 214.368 108.062ZM188.293 191.819C192.146 190.586 192.91 190.913 194.304 194.396C200.708 210.401 213.761 211.147 228.561 211.147C228.561 229.34 240.98 230.458 255.265 236.193C257.565 237.118 257.549 237.63 255.022 243.967C254.021 246.479 253.801 246.584 249.525 246.579C241.108 246.568 234.649 239.336 226.291 239.336C225.527 239.336 223.641 240.37 222.101 241.634C220.56 242.897 218.008 244.396 216.431 244.962C213.816 245.902 213.301 245.822 210.603 244.073C207.767 242.235 207.079 237.292 210.487 234.465C212.865 232.491 214.223 227.974 213.189 225.478C210.827 219.776 192.502 215.391 189.902 222.23C188.055 227.093 189.982 231.305 183.88 231.058C178.7 230.847 178.703 230.852 177.77 222.032C176.522 210.251 163.201 205.478 152.21 205.509C151.431 205.509 151.225 204.165 151.405 200.278C151.644 195.171 151.706 195.036 154.072 194.588C164.451 192.621 173.291 204.555 184.129 195.435C186.31 193.601 186.907 192.263 188.293 191.819Z" fill="#05211A"></path></svg> 