<?xml version="1.0" encoding="UTF-8"?> <svg xmlns="http://www.w3.org/2000/svg" width="430" height="430" viewBox="0 0 430 430" fill="none"><path d="M215 0C333.741 0 430 96.2588 430 215C430 333.741 333.741 430 215 430C96.2588 430 0 333.741 0 215C0 96.2588 96.2588 0 215 0ZM216.411 100.035C210.683 99.9702 205.353 99.9977 204.565 100.096C192.163 101.643 181.189 104.965 170.783 110.324C145.272 123.463 126.787 145.172 117.285 173.158C114.199 182.246 111.723 194.187 111.179 202.607L110.904 206.856L109.229 206.859C105.154 206.865 102.421 208.406 100.974 211.514C100.08 213.433 100.004 214.113 100 220.161C99.9951 228.086 100.444 229.814 103.229 232.587C105.116 234.465 107.322 235.45 109.645 235.45H110.824L111.528 241.884C114.348 267.646 123.032 288.161 137.571 303.41C150.252 316.71 169.574 325.938 191.499 329.162C204.917 331.135 224.649 331.134 238.673 329.158C260.119 326.137 279.473 317.247 291.206 305.029C306.761 288.832 316.427 265.598 318.75 238.82C319.032 235.574 319.081 235.45 320.066 235.45C323.317 235.45 326.863 233.034 328.577 229.65C329.584 227.663 329.604 227.457 329.48 219.982C329.361 212.765 329.297 212.235 328.332 210.363C326.982 207.746 325.321 206.856 321.777 206.856H319.09L318.601 201.14C317.028 182.771 310.869 164.4 301.034 148.745C285.143 123.448 259.771 105.976 231.729 101.02C227.77 100.32 224.824 100.13 216.411 100.035ZM203.261 120.657C206.982 119.976 208.93 119.884 216.411 120.034C226.244 120.231 229.791 120.729 237.102 122.938C250.63 127.026 261.412 133.472 271.575 143.544C281.595 153.473 288.121 163.742 293.254 177.651C296.043 185.211 297.791 193.717 298.353 202.466L298.635 206.856H131.448V205.879C131.448 203.596 132.341 196.12 133.094 192.096C135.63 178.539 141.344 165.108 149.144 154.368C162.689 135.716 180.044 124.906 203.261 120.657Z" fill="#05211A"></path></svg> 