<?xml version="1.0" encoding="UTF-8"?> <svg xmlns="http://www.w3.org/2000/svg" width="430" height="430" viewBox="0 0 430 430" fill="none"><path d="M215 0C333.741 0 430 96.2588 430 215C430 333.741 333.741 430 215 430C96.2588 430 0 333.741 0 215C0 96.2588 96.2588 0 215 0ZM141.07 238.114C142.342 266.629 146.244 298.633 153.614 326.292C154.114 328.168 154.74 330.662 155.005 331.835C155.638 334.637 156.728 335.929 160.438 338.271C177.947 349.323 194.371 351 214.521 351C229.178 350.999 263.183 350.455 273.245 336.628C277.505 330.773 279.896 321.156 281.95 301.604C283.095 290.707 284.809 279.564 286.594 268.733C287.829 261.223 288.954 249.217 289.656 236.03L290.24 225.071L285.638 225.526C283.106 225.776 276.621 226.794 271.228 227.789C252.906 231.167 237.089 232.193 210.721 231.714C186.863 231.28 163.975 227.714 140.484 224.977L141.07 238.114ZM129.675 188.64C128.971 188.664 127.574 189.016 126.568 189.422C123.824 190.529 122 193.683 122 197.323C122 203.145 124.103 204.854 137.35 209.793C150.328 214.632 185.38 218.445 215.801 218.326C242.375 218.222 262.87 216.246 276.771 212.447C280.523 211.422 285.511 210.266 287.856 209.879C291.892 209.214 297.878 207.416 302.918 205.355C307.444 203.506 309.482 194.384 306.237 190.495C304.347 188.229 302.646 188.13 294.678 189.822C275.353 193.927 262.932 195.717 244.322 197.08C216.862 199.089 170.199 197.065 155.106 193.21C149.608 191.805 131.611 188.571 129.675 188.64ZM203.132 123.895C197.671 123.963 190.517 124.276 187.234 124.59C179.858 125.294 167.913 129.221 163.357 132.44C158.209 136.079 154.477 139.648 150.141 144.234C144.163 150.556 138.988 161.561 137.58 169.993L136.768 174.859C148.735 178.312 160.698 181.375 173.164 182.341C213.153 185.437 280.423 180.381 288.282 176.449C302.228 174.634 272.26 131.797 262.935 129.694C260.683 129.187 253.138 144.566 252.021 153.581C250.153 156.93 249.48 155.32 233.852 155.322C215.567 155.325 197.573 154.088 188.939 152.233C185.657 151.528 182.055 150.762 180.938 150.532C179.007 150.135 178.929 149.867 179.403 145.269C179.543 143.923 181.079 136.884 182.758 136.774C196.743 135.868 210.241 134.703 210.807 134.354C211.059 134.192 213.579 125.121 213.551 125.048C213.149 124.002 211.249 123.792 203.132 123.895ZM254.194 67.499C250.433 65.5804 250.582 65.5904 246.592 67.0332C243.31 68.2211 241.432 71.1953 240.383 76.8691C239.674 80.7047 238.358 85.5736 235.426 95.2031C233.39 101.888 218.629 137.612 222.306 143.559C222.835 144.408 236.379 144.43 237.581 143.582C238.07 143.237 238.973 141.228 239.587 139.118C244.773 121.316 250.496 104.487 254.967 86.4619C255.403 84.7034 256.402 81.0467 257.186 78.3379C259.038 71.9311 258.409 69.6495 254.194 67.499Z" fill="#05211A"></path></svg> 