<?xml version="1.0" encoding="UTF-8"?> <svg xmlns="http://www.w3.org/2000/svg" width="430" height="430" viewBox="0 0 430 430" fill="none"><path d="M215 0C333.741 0 430 96.2588 430 215C430 333.741 333.741 430 215 430C96.2588 430 0 333.741 0 215C0 96.2588 96.2588 0 215 0ZM95.4883 159.02C93.1845 158.422 91.7727 158.041 91.3467 160.453C90.5212 165.138 91.319 282.687 92.1826 283.568C92.65 284.036 94.3163 284.735 95.8867 285.124C119.058 290.873 141.263 302.102 164.073 309.328C167.725 310.485 174.523 312.926 179.18 314.751C191.809 319.703 201.86 322.716 217.303 328.999C217.921 328.319 217.802 198.309 217.182 196.693C215.137 191.372 176.84 184.324 171.137 182.858V192.506C171.137 194.446 169.977 202.867 169.262 203.33C164.784 206.223 157.615 201.806 152.935 200.957C147.016 199.883 135.883 196.063 135.395 191.57C135.141 189.242 134.873 184.294 134.799 180.576C134.644 172.862 133.043 171.357 130.011 169.979C121.422 166.074 106.363 161.84 95.4883 159.02ZM338.448 147.118C338.258 147.121 334.735 148.78 330.616 150.809C302.088 164.857 289.792 170.824 289.362 170.826C289.092 170.827 285.147 172.575 280.596 174.712C276.043 176.85 270.794 179.308 268.932 180.173C267.069 181.039 260.425 184.242 254.169 187.293C247.912 190.344 242.531 192.84 242.211 192.84C241.89 192.84 239.77 193.682 237.499 194.71C235.229 195.738 232.99 196.595 232.523 196.615C231.519 196.665 230.882 327.436 231.883 328.407C235.447 331.797 280.949 303.408 286.713 300.416C303.533 291.685 315.743 287.155 338.785 273.095V210.106C338.785 175.462 338.634 147.118 338.448 147.118ZM144.465 126.092C142.051 124.624 141.735 124.618 138.114 125.979C128.035 129.768 116.643 134.558 106.362 137.03C101.783 138.132 98.3213 139.563 98.3193 140.355C98.3193 144.646 145.179 155.995 150.815 158.102C169.083 164.925 210.332 186.27 230.334 179.389C233.401 178.334 238.687 176.166 242.081 174.571C249.85 170.922 257.663 165.427 265.561 162.562C230.407 154.644 186.212 137.03 144.465 126.092ZM206.274 101.027C205.342 100.839 201.723 101.635 198.231 102.796C187.239 106.45 177.638 109.979 173.253 111.976C170.924 113.037 167.778 114.169 166.26 114.492C163.297 115.124 163.296 116.636 166.258 116.636C167.981 116.636 171.208 117.479 176.64 119.346C199.019 127.034 222.28 132.687 244.195 140.298C247.725 141.524 287.513 153.808 287.889 153.214C288.492 152.261 306.681 143.547 311.436 141.933C315.077 140.698 330.576 135.113 330.163 132.969C329.966 131.949 328.429 131.229 324.957 130.534C318.236 129.186 310.597 126.873 304.184 124.638C292.091 120.427 278.759 119.472 266.392 115.743C252.979 111.699 239.043 109.955 225.749 105.617C219.667 103.632 212.587 102.313 206.274 101.027Z" fill="#05211A"></path></svg> 